PathFileType	4	(X/Y/Z)	/Volumes/GoogleDrive/My Drive/Research/Stanford/Projects/Digital Athlete Project/Sprinting/Sprint Simulation/sprinter/subjects/JA1/experimental_data/TRC/run0500cms.trc
DataRate	CameraRate	NumFrames	NumMarkers	Units	OrigDataRate	OrigDataStartFrame	OrigNumFrames
250.000000	250.000000	4	53	mm	250.000000	356	569
Frame#	Time	C7			RSH			LSH			MAN			T7			LARM			LELB			LFOREARM			LWR			RARM			RELB			RFOREARM			RWR			RASI			LASI			SACR			P1			P2			P3			LTHLP			LTHLD			LTHAP			LLEPI			LPAT			LTIAP			LTIAD			LTILAT			LLMAL			LHEEL			LMFS			LMFL			LP1MT			LTOE			LP5MT			RTHLP			RTHLD			RTHAP			RTHAD			RLEPI			RPAT			RTIAP			RTIAD			RTILAT			RLMAL			RHEEL			RMFS			RMFL			RP1MT			RTOE			RP5MT			LTHAD			x52			x53			
		X1	Y1	Z1	X2	Y2	Z2	X3	Y3	Z3	X4	Y4	Z4	X5	Y5	Z5	X6	Y6	Z6	X7	Y7	Z7	X8	Y8	Z8	X9	Y9	Z9	X10	Y10	Z10	X11	Y11	Z11	X12	Y12	Z12	X13	Y13	Z13	X14	Y14	Z14	X15	Y15	Z15	X16	Y16	Z16	X17	Y17	Z17	X18	Y18	Z18	X19	Y19	Z19	X20	Y20	Z20	X21	Y21	Z21	X22	Y22	Z22	X23	Y23	Z23	X24	Y24	Z24	X25	Y25	Z25	X26	Y26	Z26	X27	Y27	Z27	X28	Y28	Z28	X29	Y29	Z29	X30	Y30	Z30	X31	Y31	Z31	X32	Y32	Z32	X33	Y33	Z33	X34	Y34	Z34	X35	Y35	Z35	X36	Y36	Z36	X37	Y37	Z37	X38	Y38	Z38	X39	Y39	Z39	X40	Y40	Z40	X41	Y41	Z41	X42	Y42	Z42	X43	Y43	Z43	X44	Y44	Z44	X45	Y45	Z45	X46	Y46	Z46	X47	Y47	Z47	X48	Y48	Z48	X49	Y49	Z49	X50	Y50	Z50	X51	Y51	Z51	X52	Y52	Z52	X53	Y53	Z53	
356	1.424000	1803.606812	1494.779541	187.052383	1829.274902	1476.913330	357.100525	1831.505981	1482.926392	27.009180	1938.490723	1392.574951	200.919098	1726.777222	1311.345459	182.047852	1782.623779	1300.368408	-69.507996	1745.181152	1170.552368	-102.579376	1871.051147	1104.238770	-56.631805	1975.587646	1045.437500	-14.638109	1720.404907	1355.285156	459.585907	1624.003174	1266.980957	512.455322	1686.325073	1132.636108	510.479614	1731.802734	1008.847717	499.378967	1904.253662	1031.490356	281.194458	1896.641846	1009.509949	69.541519	1717.212036	1063.696899	187.494415	1708.225098	1034.094971	135.911362	1704.011597	1035.665527	242.621323	1679.918701	977.431274	189.139023	1796.670288	697.046570	14.976862	1804.257935	584.264404	33.721153	1925.887085	694.368652	98.592934	1801.377075	486.568298	60.368889	1866.694824	426.448029	126.110146	1640.039062	488.995026	142.897064	1509.285400	541.829712	144.211823	1591.977539	550.033203	67.267639	1390.427612	617.999756	90.806831	1388.282593	686.875549	143.929977	1327.940552	527.687073	140.791458	1321.921753	570.317017	78.821236	1246.681519	499.171783	168.844742	1249.404297	468.595734	130.048737	1255.577148	536.949890	49.545273	1895.432251	767.045959	380.322937	1956.921875	674.071716	362.625885	2018.102417	804.998779	305.549866	2058.395996	714.639954	296.083710	2011.685425	536.450867	330.880096	2097.584717	570.391479	283.398438	2041.788330	326.331482	232.146286	2022.463501	202.780182	207.610077	1997.984253	308.856079	312.835907	1991.326782	75.132317	251.699371	1922.618164	44.765430	202.232635	2096.803467	80.830170	205.567520	2055.323975	42.831463	257.736633	2161.619873	34.767544	155.447525	2191.621094	46.610367	194.868912	2126.855469	17.475319	279.708252	1916.200928	578.088989	107.272095	1757.235474	939.620911	493.171082	2028.718384	1015.551697	6.705192
357	1.428000	1824.756958	1490.995605	188.019562	1851.154663	1472.225098	358.111450	1851.904175	1478.297241	27.552614	1959.448608	1388.139404	200.624786	1747.182983	1307.611816	182.850571	1801.602295	1296.173462	-68.451256	1762.795166	1167.381592	-102.036186	1886.026733	1095.326294	-58.365295	1988.473633	1031.211670	-18.293615	1745.341064	1348.046753	462.114319	1651.085083	1258.564453	516.407471	1716.080933	1125.202881	513.031433	1763.727539	1002.470581	501.351624	1922.943604	1027.722778	281.459167	1916.554565	1005.822815	70.014999	1736.441406	1059.672485	187.519012	1727.261963	1030.135620	135.955505	1722.745361	1031.983154	242.883102	1699.440918	973.437439	188.947998	1822.801636	691.946838	14.521666	1833.572632	579.366089	33.026810	1951.257080	692.283508	98.383774	1833.262817	482.625824	59.271587	1898.882568	423.420685	125.621002	1673.573975	486.878815	142.536331	1543.769897	541.372192	143.563583	1625.937988	548.309326	66.081764	1424.999023	619.053223	89.328575	1423.234985	688.575928	142.137177	1362.931396	529.162170	140.809540	1357.260620	571.157166	78.694786	1281.465698	501.318085	168.955353	1283.205078	469.497620	130.607559	1290.563721	537.580627	49.186768	1913.406250	762.228333	380.661621	1973.623901	668.507812	362.820251	2036.055298	799.801331	307.326599	2073.480225	707.743225	296.008545	2030.028809	531.613281	330.546722	2117.584229	563.658936	281.944397	2051.417236	322.224976	228.512817	2025.927734	200.036835	202.494095	2010.887939	305.043091	309.210999	1990.333496	75.341919	247.536911	1922.181152	45.438290	198.614471	2095.526855	80.605156	201.126740	2054.650879	44.408394	254.417984	2160.145508	33.709984	154.339203	2192.513184	44.894772	190.058380	2126.330811	18.350245	278.973969	1944.927856	575.957886	106.716187	1790.373291	933.834351	494.819855	2040.542236	998.625366	2.072822
358	1.432000	1845.803955	1487.277222	188.983139	1873.218750	1467.788208	359.026489	1872.642822	1474.224854	27.741213	1980.567261	1383.209106	200.180191	1767.516235	1304.154297	183.591919	1820.405640	1291.821289	-67.818520	1779.833740	1164.083862	-101.551544	1899.027100	1086.872925	-59.403419	2000.237549	1017.335938	-22.076653	1770.962646	1340.424805	464.718170	1678.610107	1249.633301	520.131042	1746.003784	1117.719482	515.489380	1795.705811	996.130676	503.282013	1941.151733	1024.360474	281.788696	1936.243896	1002.244019	70.185867	1755.354614	1055.630493	188.062973	1746.652832	1025.851929	135.954605	1741.122681	1028.123657	242.966324	1717.973022	969.320862	189.338593	1849.297241	687.014709	14.030580	1863.040771	574.779419	32.362991	1977.752075	690.742249	98.002853	1865.396729	478.898438	58.800877	1931.325806	421.093292	125.152550	1706.878662	484.716339	142.492249	1578.345581	540.522583	142.925430	1660.470093	546.177917	64.901405	1460.308472	619.269958	88.672531	1458.239502	689.455505	139.925949	1398.009399	530.065552	141.296799	1391.788452	571.269043	77.863060	1316.946167	502.586121	169.883240	1318.151611	471.398682	131.890808	1325.505005	537.198181	49.187252	1930.981689	757.174438	380.592621	1989.864502	662.850342	362.190491	2054.247070	793.208740	309.600250	2087.957764	700.502075	295.374756	2048.682129	526.792908	330.040436	2136.909180	556.732666	280.566376	2059.780029	319.358734	224.176773	2029.750122	198.078598	197.772430	2022.800293	301.796967	304.695709	1991.190796	77.413612	244.527679	1923.225342	46.997864	195.249725	2095.698975	80.396233	197.879883	2054.827881	45.159874	251.872223	2161.349854	33.006020	153.616653	2194.334229	42.771992	188.432419	2126.678467	18.632181	278.612640	1974.538330	574.313904	106.150574	1823.500977	928.133911	496.455231	2051.677734	981.993774	-3.105319
359	1.436000	1866.773560	1483.694458	189.955658	1895.210571	1463.591431	359.973145	1893.248413	1470.426880	28.150240	2002.022583	1378.854248	200.220093	1787.897705	1301.072388	184.439713	1839.710449	1287.699585	-66.894890	1797.274414	1160.907227	-101.125793	1913.839600	1078.517700	-61.093483	2012.045410	1003.700012	-25.767075	1796.341187	1332.958252	467.195435	1706.528076	1240.914673	523.741821	1776.201050	1110.262451	517.961792	1828.135742	989.985535	505.132050	1959.566650	1020.466492	281.872986	1955.973267	998.325134	70.458298	1773.909790	1051.511597	188.466705	1765.070557	1021.864502	136.823303	1759.430908	1024.171509	243.262634	1736.625488	965.390381	189.504822	1875.708130	682.433105	13.625177	1892.811890	570.645813	31.561241	2004.133667	689.543457	97.711174	1898.010864	476.249817	57.810627	1964.361816	419.601868	124.934303	1740.256226	482.870850	143.248734	1613.176758	539.515503	142.053375	1695.168091	544.025330	63.787704	1495.199829	618.987488	87.585014	1493.035278	689.833801	138.217331	1433.468018	530.071228	141.287033	1427.073364	570.762146	77.913063	1350.953735	503.974915	172.122177	1353.702393	471.472443	133.168655	1361.029053	535.879639	49.692265	1948.697754	752.342957	380.293304	2006.875366	657.734070	361.879974	2071.950684	785.321899	311.556854	2103.594238	693.201660	295.669067	2067.374023	522.421326	329.272552	2154.972656	550.329590	279.342316	2068.917969	317.587891	220.317352	2035.018188	196.965500	193.785904	2035.016968	298.980408	300.743347	1994.747437	79.893456	241.630112	1925.515869	49.356335	191.669693	2099.095459	79.244049	196.083878	2056.373047	45.787205	249.938705	2162.817139	32.599506	153.621582	2197.870117	40.425762	189.555847	2126.885254	18.301453	278.691132	2004.403320	573.112976	105.434479	1857.179443	922.722412	497.957184	2061.958496	965.673950	-7.812424
